{
	"asset":{
		"generator":"Khronos glTF Blender I/O v4.1.63",
		"version":"2.0"
	},
	"scene":0,
	"scenes":[
		{
			"name":"Scene",
			"nodes":[
				0
			]
		}
	],
	"nodes":[
		{
			"mesh":0,
			"name":"Cylinder.001",
			"scale":[
				0.4302191734313965,
				0.025411153212189674,
				0.4302191734313965
			],
			"translation":[
				0,
				0.5786184072494507,
				0
			]
		}
	],
	"meshes":[
		{
			"name":"Cylinder.002",
			"primitives":[
				{
					"attributes":{
						"POSITION":0,
						"NORMAL":1,
						"TEXCOORD_0":2
					},
					"indices":3
				}
			]
		}
	],
	"accessors":[
		{
			"bufferView":0,
			"componentType":5126,
			"count":9586,
			"max":[
				1.0524232387542725,
				21.915599822998047,
				1.0524228811264038
			],
			"min":[
				-1.0524232387542725,
				-21.915592193603516,
				-1.0524232387542725
			],
			"type":"VEC3"
		},
		{
			"bufferView":1,
			"componentType":5126,
			"count":9586,
			"type":"VEC3"
		},
		{
			"bufferView":2,
			"componentType":5126,
			"count":9586,
			"type":"VEC2"
		},
		{
			"bufferView":3,
			"componentType":5123,
			"count":41952,
			"type":"SCALAR"
		}
	],
	"bufferViews":[
		{
			"buffer":0,
			"byteLength":115032,
			"byteOffset":0,
			"target":34962
		},
		{
			"buffer":0,
			"byteLength":115032,
			"byteOffset":115032,
			"target":34962
		},
		{
			"buffer":0,
			"byteLength":76688,
			"byteOffset":230064,
			"target":34962
		},
		{
			"buffer":0,
			"byteLength":83904,
			"byteOffset":306752,
			"target":34963
		}
	],
	"buffers":[
		{
			"byteLength":390656,
			"uri":"data:application/octet-stream;base64,"
		}
	]
}
