{
	"asset":{
		"generator":"Khronos glTF Blender I/O v4.1.63",
		"version":"2.0"
	},
	"scene":0,
	"scenes":[
		{
			"name":"Scene",
			"nodes":[
				0
			]
		}
	],
	"nodes":[
		{
			"mesh":0,
			"name":"Cube.006",
			"rotation":[
				0,
				0,
				0.004173060413450003,
				0.9999912977218628
			],
			"translation":[
				-0.007269476540386677,
				0.49968472123146057,
				0.0013893842697143555
			]
		}
	],
	"meshes":[
		{
			"name":"Cube.020",
			"primitives":[
				{
					"attributes":{
						"POSITION":0,
						"NORMAL":1,
						"TEXCOORD_0":2
					},
					"indices":3
				}
			]
		}
	],
	"accessors":[
		{
			"bufferView":0,
			"componentType":5126,
			"count":3744,
			"max":[
				0.5300694704055786,
				0.531876802444458,
				0.5261243581771851
			],
			"min":[
				-0.532991886138916,
				-0.530194878578186,
				-0.5289031267166138
			],
			"type":"VEC3"
		},
		{
			"bufferView":1,
			"componentType":5126,
			"count":3744,
			"type":"VEC3"
		},
		{
			"bufferView":2,
			"componentType":5126,
			"count":3744,
			"type":"VEC2"
		},
		{
			"bufferView":3,
			"componentType":5123,
			"count":6336,
			"type":"SCALAR"
		}
	],
	"bufferViews":[
		{
			"buffer":0,
			"byteLength":44928,
			"byteOffset":0,
			"target":34962
		},
		{
			"buffer":0,
			"byteLength":44928,
			"byteOffset":44928,
			"target":34962
		},
		{
			"buffer":0,
			"byteLength":29952,
			"byteOffset":89856,
			"target":34962
		},
		{
			"buffer":0,
			"byteLength":12672,
			"byteOffset":119808,
			"target":34963
		}
	],
	"buffers":[
		{
			"byteLength":132480,
			"uri":"data:application/octet-stream;base64,"
		}
	]
}
