{
	"asset":{
		"generator":"Khronos glTF Blender I/O v4.1.63",
		"version":"2.0"
	},
	"scene":0,
	"scenes":[
		{
			"name":"Scene",
			"nodes":[
				0
			]
		}
	],
	"nodes":[
		{
			"mesh":0,
			"name":"Cylinder",
			"scale":[
				1,
				0.40196382999420166,
				1
			]
		}
	],
	"meshes":[
		{
			"name":"Cylinder",
			"primitives":[
				{
					"attributes":{
						"POSITION":0,
						"NORMAL":1,
						"TEXCOORD_0":2
					},
					"indices":3
				}
			]
		}
	],
	"accessors":[
		{
			"bufferView":0,
			"componentType":5126,
			"count":4682,
			"max":[
				2.402228355407715,
				9.927145004272461,
				3.4432594776153564
			],
			"min":[
				-3.562016010284424,
				-1,
				-3.4432592391967773
			],
			"type":"VEC3"
		},
		{
			"bufferView":1,
			"componentType":5126,
			"count":4682,
			"type":"VEC3"
		},
		{
			"bufferView":2,
			"componentType":5126,
			"count":4682,
			"type":"VEC2"
		},
		{
			"bufferView":3,
			"componentType":5123,
			"count":13752,
			"type":"SCALAR"
		}
	],
	"bufferViews":[
		{
			"buffer":0,
			"byteLength":56184,
			"byteOffset":0,
			"target":34962
		},
		{
			"buffer":0,
			"byteLength":56184,
			"byteOffset":56184,
			"target":34962
		},
		{
			"buffer":0,
			"byteLength":37456,
			"byteOffset":112368,
			"target":34962
		},
		{
			"buffer":0,
			"byteLength":27504,
			"byteOffset":149824,
			"target":34963
		}
	],
	"buffers":[
		{
			"byteLength":177328,
			"uri":"data:application/octet-stream;base64,"
		}
	]
}
